<svg width="58.997314" height="58.998291" viewBox="0 0 58.9973 58.9983" fill="none" xmlns="http://www.w3.org/2000/svg" xmlns:xlink="http://www.w3.org/1999/xlink">
	<desc>
			Created with Pixso.
	</desc>
	<defs/>
	<path d="M4.47 58.99C3.96 58.66 3.73 58.19 3.62 57.59C2.44 50.78 1.23 43.99 0.03 37.19C-0.12 36.37 0.22 35.82 1.04 35.66C3.08 35.28 5.11 34.88 7.16 34.6C9.17 34.33 10.84 35.63 11.27 37.64C11.31 37.85 11.35 38.05 11.4 38.29C12.72 37.83 13.98 37.4 15.19 36.98C15.06 35.69 14.88 34.44 14.83 33.18C14.74 30.44 15.46 27.87 16.71 25.44C19.03 20.94 21.33 16.43 23.66 11.94C23.9 11.49 23.88 11.16 23.65 10.73C22.53 8.55 21.44 6.35 20.35 4.15C19.75 2.93 19.93 1.72 20.8 0.86C21.62 0.05 22.83 -0.17 23.89 0.35C24.42 0.61 24.93 0.92 25.44 1.22C26.42 1.77 26.76 1.76 27.61 1.03C28.84 0 30.18 -0.33 31.67 0.36C32.08 0.55 32.44 0.85 32.82 1.11C33.47 1.56 33.98 1.55 34.61 1.07C36.41 -0.3 37.82 -0.35 39.63 1.03C40.53 1.72 41.32 1.82 42.24 1.15C42.62 0.87 43.06 0.66 43.48 0.43C44.67 -0.22 45.87 -0.09 46.78 0.76C47.68 1.61 47.9 2.83 47.31 4.04C46.22 6.3 45.11 8.56 43.99 10.8C43.8 11.19 43.79 11.48 43.99 11.86C46.45 16.7 48.89 21.55 51.32 26.4C51.55 26.86 51.74 27.35 51.9 27.84C52.11 28.49 51.82 29.09 51.25 29.32C50.68 29.55 50.08 29.28 49.77 28.67C47.2 23.48 44.62 18.3 42.06 13.1C41.84 12.67 41.61 12.5 41.11 12.5C36.27 12.52 31.43 12.52 26.59 12.5C26.13 12.5 25.88 12.61 25.66 13.05C23.37 17.56 21.05 22.06 18.73 26.57C17.25 29.45 16.76 32.47 17.38 35.66C17.41 35.77 17.43 35.89 17.47 36C17.48 36.05 17.52 36.1 17.49 36.05C18.84 35.77 20.14 35.39 21.46 35.25C24.35 34.95 26.95 35.83 29.29 37.53C31.86 39.42 34.42 41.31 37.02 43.16C38.27 44.06 39.29 45.06 39.26 46.74C41.01 46.93 42.48 46.5 43.71 45.26C46.4 42.54 49.11 39.84 51.81 37.14C53.28 35.68 55.07 35.33 56.75 36.2C57.77 36.72 58.46 37.53 58.79 38.64C58.84 38.83 58.92 39 58.99 39.17C58.99 39.56 58.99 39.94 58.99 40.32C58.77 41.21 58.41 42.01 57.81 42.71C56.41 44.35 55.05 46.01 53.65 47.65C52.36 49.16 51.13 50.76 49.7 52.14C46.42 55.26 42.43 56.69 37.92 56.68C32.75 56.68 27.58 56.68 22.42 56.68C21.37 56.68 20.82 56.28 20.83 55.52C20.84 54.76 21.36 54.38 22.43 54.38C27.62 54.38 32.81 54.39 37.99 54.38C42.3 54.37 46 52.87 48.91 49.66C50.36 48.05 51.72 46.36 53.12 44.7C54.16 43.47 55.22 42.25 56.23 40.99C57.12 39.88 56.61 38.4 55.28 38.1C54.52 37.92 53.94 38.27 53.43 38.78C50.72 41.5 47.99 44.21 45.29 46.94C44.28 47.95 43.13 48.7 41.72 48.92C40.75 49.08 39.74 49.03 38.74 49.09C38.54 49.1 38.3 49.12 38.16 49.24C36.79 50.45 35.31 50.49 33.73 49.7C31.8 48.73 29.83 47.81 27.92 46.79C26.6 46.08 25.28 45.58 23.76 45.78C23.63 45.79 23.49 45.77 23.36 45.75C22.79 45.66 22.37 45.21 22.36 44.66C22.34 44.12 22.73 43.59 23.31 43.54C24.78 43.43 26.24 43.34 27.63 44.08C30 45.32 32.39 46.48 34.8 47.64C35.19 47.82 35.76 47.94 36.15 47.81C37.19 47.46 37.23 46.2 36.26 45.48C33.45 43.42 30.63 41.35 27.8 39.3C25.62 37.72 23.19 37.11 20.55 37.69C19.21 37.98 17.92 38.5 16.61 38.94C15.01 39.47 13.42 40.03 11.79 40.59C12.02 41.94 12.25 43.24 12.48 44.54C13.02 47.62 13.58 50.69 14.08 53.78C14.36 55.45 13.38 57.12 11.8 57.68C11.07 57.94 10.27 58.03 9.5 58.18C8.09 58.46 6.68 58.72 5.28 58.99C5.01 58.99 4.74 58.99 4.47 58.99ZM33.87 10.21C36.31 10.21 38.74 10.2 41.18 10.21C41.58 10.22 41.79 10.11 41.97 9.73C42.78 8.02 43.63 6.32 44.46 4.62C44.7 4.14 44.96 3.66 45.15 3.17C45.24 2.95 45.17 2.68 45.17 2.44C44.94 2.46 44.69 2.42 44.5 2.52C43.93 2.8 43.42 3.19 42.84 3.44C42.29 3.67 41.69 3.87 41.1 3.94C39.99 4.07 39.11 3.5 38.27 2.87C37.32 2.17 36.94 2.19 36.02 2.9C34.55 4.02 32.95 4.04 31.45 2.96C30.21 2.06 30.05 2.07 28.81 3.04C27.51 4.06 26.12 4.19 24.67 3.42C24.18 3.16 23.72 2.84 23.21 2.61C22.99 2.5 22.7 2.54 22.44 2.51C22.46 2.77 22.41 3.07 22.51 3.29C23.57 5.44 24.65 7.58 25.71 9.73C25.89 10.08 26.09 10.22 26.5 10.22C28.95 10.2 31.41 10.21 33.87 10.21ZM2.47 37.74C3.58 44.01 4.67 50.23 5.78 56.52C7.5 56.2 9.16 55.93 10.81 55.58C11.59 55.41 11.93 54.72 11.78 53.87C11.14 50.2 10.5 46.54 9.85 42.88C9.59 41.37 9.33 39.85 9.05 38.34C8.87 37.31 8.34 36.77 7.47 36.89C5.82 37.12 4.18 37.44 2.47 37.74Z" fill="#000000" fill-opacity="1.000000" fill-rule="nonzero"/>
	<path d="M29.01 31.26C28.97 30.47 29.34 29.98 30.01 29.89C30.65 29.81 31.22 30.24 31.26 31.01C31.35 32.64 33.16 33.44 34.44 33.09C35.54 32.79 36.32 31.92 36.27 30.95C36.22 29.92 35.32 29.08 34.18 28.9C33.32 28.76 32.41 28.67 31.62 28.33C29.8 27.54 28.9 25.94 29.01 24.06C29.12 22.35 30.35 20.84 32.13 20.23C32.42 20.14 32.61 20.06 32.63 19.67C32.67 18.89 33.18 18.42 33.82 18.45C34.45 18.48 34.89 18.93 34.9 19.69C34.91 20.1 35.16 20.14 35.43 20.24C37.22 20.9 38.31 22.14 38.55 24.07C38.65 24.87 38.23 25.46 37.52 25.54C36.89 25.61 36.39 25.15 36.28 24.39C36.12 23.32 35.52 22.62 34.52 22.35C33.46 22.07 32.31 22.42 31.71 23.21C30.72 24.49 31.61 26.25 33.34 26.52C34.24 26.66 35.18 26.77 36 27.13C37.68 27.85 38.69 29.59 38.57 31.21C38.43 33.05 37.25 34.57 35.46 35.17C35.12 35.28 34.9 35.39 34.89 35.82C34.87 36.4 34.39 36.81 33.84 36.85C33.3 36.88 32.77 36.51 32.69 35.93C32.63 35.45 32.41 35.28 31.98 35.13C30.28 34.55 29.08 32.96 29.01 31.26Z" fill="#000000" fill-opacity="1.000000" fill-rule="nonzero"/>
	<path d="M52.74 32.62C52.73 33.23 52.18 33.76 51.58 33.75C50.96 33.74 50.45 33.21 50.46 32.59C50.47 31.97 51 31.45 51.62 31.46C52.22 31.48 52.76 32.03 52.74 32.62Z" fill="#000000" fill-opacity="1.000000" fill-rule="nonzero"/>
	<path d="M17.63 54.39C18.24 54.4 18.77 54.95 18.76 55.55C18.75 56.15 18.2 56.69 17.6 56.67C16.99 56.66 16.46 56.12 16.47 55.51C16.48 54.91 17.03 54.38 17.63 54.39Z" fill="#000000" fill-opacity="1.000000" fill-rule="nonzero"/>
	<path d="M8.24 51.31C8.85 51.31 9.37 51.85 9.37 52.46C9.37 53.08 8.85 53.59 8.23 53.59C7.6 53.58 7.1 53.07 7.11 52.44C7.11 51.83 7.64 51.3 8.24 51.31Z" fill="#000000" fill-opacity="1.000000" fill-rule="nonzero"/>
</svg>
