<svg width="60.999084" height="61.001221" viewBox="0 0 60.9991 61.0012" fill="none" xmlns="http://www.w3.org/2000/svg" xmlns:xlink="http://www.w3.org/1999/xlink">
	<desc>
			Created with Pixso.
	</desc>
	<defs/>
	<path d="M46.22 61C44.99 60.75 43.89 60.28 43.06 59.27C42.34 58.39 41.95 57.38 41.95 56.26C41.93 49.89 41.91 43.52 41.95 37.14C41.96 35.12 42.97 33.6 44.84 32.8C46.66 32.02 48.39 32.34 49.89 33.65C50.96 34.59 51.42 35.83 51.47 37.19C52.27 37.54 53.02 37.87 53.79 38.21C53.78 38.22 53.83 38.2 53.83 38.17C53.76 35.08 53.85 31.97 53.57 28.9C53.27 25.62 51.99 22.61 50.18 19.85C50.08 19.7 49.84 19.58 49.66 19.57C47.98 19.53 46.6 18.85 45.4 17.71C42.38 14.84 38.76 13.13 34.7 12.34C29.48 11.34 24.53 12.18 19.83 14.64C18.06 15.58 16.55 16.85 15.05 18.16C14.07 19.03 12.9 19.5 11.58 19.53C11.12 19.54 10.9 19.73 10.68 20.12C8.93 23.24 8.07 26.65 7.51 30.15C7.08 32.83 7.14 35.53 7.16 38.24C7.95 37.88 8.72 37.54 9.53 37.18C9.58 35.83 10.04 34.59 11.11 33.65C12.61 32.34 14.34 32.02 16.16 32.8C18.05 33.61 19 35.15 19.05 37.2C19.1 38.77 19.06 40.34 19.06 41.91C19.06 46.35 18.99 50.8 19.09 55.25C19.16 58.09 17.91 60.43 14.78 60.99C14.46 60.99 14.14 60.99 13.82 60.99C13.79 60.98 13.75 60.95 13.72 60.94C11.39 60.64 9.66 58.71 9.53 56.44C9.52 56.28 9.29 56.05 9.12 56C7.03 55.34 5.65 53.98 5.02 51.89C4.92 51.57 4.79 51.46 4.46 51.42C1.64 51.06 0 49.19 0 46.35C-0.01 41.68 -0.01 37.02 0 32.35C0 29.84 0.28 27.37 0.89 24.93C1.75 21.51 3.18 18.35 5.14 15.42C5.3 15.17 5.38 14.8 5.35 14.5C5.14 12.45 5.72 10.69 7.2 9.26C12.44 4.22 18.73 1.37 25.88 0.34C26.82 0.2 27.77 0.11 28.71 0C29.9 0 31.09 0 32.28 0C32.43 0.03 32.59 0.07 32.74 0.1C34.47 0.34 36.22 0.48 37.91 0.85C43.93 2.18 49.24 4.88 53.71 9.18C55.19 10.6 55.88 12.33 55.63 14.38C55.57 14.86 55.68 15.21 55.93 15.59C58.28 19.07 59.84 22.88 60.53 27.03C60.73 28.22 60.84 29.42 60.99 30.61C60.99 36.17 60.99 41.74 60.99 47.29C60.97 47.33 60.94 47.36 60.94 47.4C60.56 49.66 58.75 51.29 56.51 51.43C56.16 51.45 56.06 51.62 55.97 51.91C55.34 53.98 53.98 55.34 51.91 55.97C51.56 56.07 51.45 56.23 51.43 56.57C51.36 57.54 51.01 58.41 50.41 59.18C49.58 60.24 48.45 60.74 47.17 60.99C46.86 61 46.54 61 46.22 61ZM31.08 2.37C24.31 2.45 18.56 4.08 13.32 7.41C11.56 8.53 9.88 9.78 8.51 11.37C6.81 13.36 7.81 16.39 10.35 17.06C11.74 17.42 12.88 16.94 13.94 16.01C15.04 15.05 16.16 14.07 17.4 13.3C22.4 10.21 27.85 9.03 33.69 9.76C36.74 10.14 39.6 11.08 42.3 12.53C44.22 13.56 45.89 14.92 47.51 16.36C48.59 17.32 49.89 17.44 51.19 16.87C53.59 15.83 54.04 12.77 52.06 10.89C46.02 5.17 38.73 2.58 31.08 2.37ZM16.68 46.7C16.68 46.26 16.68 45.82 16.68 45.39C16.68 42.67 16.69 39.95 16.67 37.23C16.66 35.73 15.48 34.66 14.05 34.8C12.78 34.92 11.92 35.95 11.91 37.36C11.91 41.53 11.91 45.7 11.91 49.87C11.91 51.95 11.9 54.04 11.91 56.12C11.92 57.27 12.57 58.17 13.57 58.49C15.15 58.98 16.66 57.84 16.67 56.11C16.69 52.97 16.68 49.84 16.68 46.7ZM49.08 46.7C49.08 43.56 49.09 40.43 49.08 37.29C49.07 35.76 47.96 34.69 46.52 34.79C45.23 34.88 44.32 35.93 44.32 37.36C44.32 43.46 44.32 49.55 44.32 55.65C44.32 55.9 44.31 56.16 44.33 56.42C44.42 57.41 45.1 58.22 46.03 58.5C47.61 58.95 49.07 57.82 49.08 56.11C49.09 52.97 49.08 49.84 49.08 46.7ZM6.64 17.51C4.5 20.86 3.12 24.48 2.65 28.39C2.09 33.05 2.45 37.75 2.4 42.43C2.4 42.44 2.42 42.46 2.41 42.44C3.17 42.24 3.93 42.04 4.73 41.82C4.72 41.85 4.75 41.82 4.75 41.78C4.76 41.49 4.76 41.19 4.76 40.89C4.82 37.24 4.57 33.59 5.12 29.95C5.59 26.78 6.38 23.7 7.67 20.76C7.94 20.15 8.26 19.57 8.54 19.01C7.89 18.5 7.28 18.02 6.64 17.51ZM52.5 18.99C52.57 19.12 52.63 19.26 52.71 19.39C55.16 23.5 56.27 27.96 56.23 32.73C56.21 35.57 56.23 38.41 56.23 41.25C56.23 41.46 56.23 41.68 56.23 41.82C57.06 42.04 57.82 42.24 58.59 42.45C58.6 42.36 58.61 42.25 58.61 42.14C58.61 38.76 58.63 35.39 58.61 32.01C58.58 28.15 57.8 24.45 56.21 20.93C55.67 19.75 55.01 18.63 54.4 17.47C53.73 18.01 53.14 18.47 52.5 18.99ZM9.5 39.8C8.14 40.3 7.2 41.48 7.17 42.87C7.12 45.41 7.13 47.95 7.17 50.49C7.19 51.91 8.2 53.17 9.5 53.56C9.5 48.98 9.5 44.41 9.5 39.8ZM51.51 39.83C51.51 44.43 51.51 49 51.51 53.58C52.87 53.09 53.81 51.88 53.83 50.46C53.87 47.94 53.87 45.42 53.83 42.9C53.8 41.48 52.81 40.23 51.51 39.83ZM4.73 44.34C3.37 44.37 2.35 45.44 2.39 46.76C2.42 48.03 3.46 49.04 4.73 49.03C4.73 47.46 4.73 45.9 4.73 44.34ZM56.25 49.05C57.69 48.96 58.69 47.88 58.6 46.55C58.53 45.29 57.45 44.29 56.25 44.38C56.25 45.92 56.25 47.46 56.25 49.05Z" fill="#000000" fill-opacity="1.000000" fill-rule="nonzero"/>
	<path d="M28.08 48.41C29.05 45.04 30.01 41.67 30.97 38.31C31.21 37.49 31.44 36.67 31.68 35.85C31.89 35.13 32.34 34.76 32.93 34.79C33.49 34.81 33.9 35.18 34.08 35.89C34.75 38.54 35.41 41.19 36.08 43.84C36.12 43.99 36.17 44.14 36.22 44.31C36.9 44.31 37.56 44.3 38.21 44.31C38.99 44.33 39.52 44.8 39.54 45.47C39.56 46.15 39.02 46.67 38.21 46.69C37.28 46.71 36.35 46.7 35.41 46.69C34.65 46.68 34.26 46.36 34.07 45.6C33.66 44.01 33.26 42.41 32.82 40.66C32.72 40.94 32.66 41.09 32.62 41.24C31.56 44.95 30.49 48.67 29.43 52.38C29.41 52.44 29.4 52.5 29.39 52.55C29.13 53.43 28.73 53.83 28.11 53.83C27.52 53.83 27.13 53.46 26.84 52.61C26.23 50.79 25.62 48.97 25.03 47.14C24.92 46.81 24.78 46.66 24.41 46.68C23.86 46.72 23.3 46.71 22.74 46.69C21.97 46.66 21.44 46.16 21.45 45.49C21.46 44.82 21.99 44.33 22.76 44.31C23.69 44.3 24.63 44.3 25.56 44.31C26.31 44.32 26.67 44.58 26.92 45.31C27.27 46.34 27.61 47.37 27.95 48.4C28 48.41 28.04 48.41 28.08 48.41Z" fill="#000000" fill-opacity="1.000000" fill-rule="nonzero"/>
	<path d="M30.58 4.59C32.82 4.88 35.06 5.14 37.29 5.46C38.12 5.58 38.55 6.17 38.42 6.85C38.28 7.56 37.68 7.93 36.83 7.77C33.95 7.22 31.06 6.98 28.13 7.25C25.7 7.48 23.3 7.89 20.99 8.73C20.75 8.82 20.51 8.91 20.26 8.98C19.64 9.14 19.05 8.87 18.83 8.33C18.59 7.72 18.81 7.05 19.46 6.79C20.32 6.44 21.2 6.13 22.1 5.89C24.86 5.13 27.69 4.76 30.56 4.75C30.56 4.7 30.57 4.64 30.58 4.59Z" fill="#000000" fill-opacity="1.000000" fill-rule="nonzero"/>
	<path d="M41.02 8.95C40.37 8.94 39.85 8.41 39.85 7.77C39.86 7.13 40.41 6.59 41.04 6.6C41.67 6.6 42.2 7.15 42.2 7.79C42.19 8.44 41.66 8.95 41.02 8.95Z" fill="#000000" fill-opacity="1.000000" fill-rule="nonzero"/>
</svg>
