<svg width="94.000000" height="67.000000" viewBox="0 0 94 67" fill="none" xmlns="http://www.w3.org/2000/svg" xmlns:xlink="http://www.w3.org/1999/xlink">
	<desc>
			Created with Pixso.
	</desc>
	<defs>
		<clipPath id="clip49_169">
			<rect width="94.000000" height="67.000000" fill="white" fill-opacity="0"/>
		</clipPath>
	</defs>
	<rect width="94.000000" height="67.000000" fill="#FFFFFF" fill-opacity="0"/>
	<g clip-path="url(#clip49_169)">
		<path d="M0 7.13C0.53 6.36 1.27 6.15 2.19 6.15C21.62 6.17 41.04 6.17 60.47 6.17C62.21 6.17 62.64 6.6 62.64 8.32C62.65 11.18 62.64 14.04 62.64 17C63.06 17.02 63.41 17.06 63.76 17.06C68.38 17.07 73 17.09 77.62 17.05C78.72 17.04 79.43 17.42 80.03 18.35C84.46 25.29 88.95 32.19 93.38 39.12C93.73 39.68 93.96 40.42 93.96 41.07C94.01 46.4 93.99 51.74 93.99 57.07C93.99 58.74 93.49 59.23 91.78 59.23C89.37 59.23 86.96 59.23 84.51 59.23C84.34 59.79 84.21 60.32 84.02 60.82C82.63 64.66 78.91 67.16 74.86 66.98C70.67 66.8 67.17 64.04 66.11 60.02C65.97 59.48 65.82 59.21 65.18 59.21C54.01 59.23 42.85 59.22 31.68 59.23C31.56 59.23 31.44 59.24 31.28 59.25C29.88 64.13 26.81 67.11 21.54 66.93C16.67 66.77 13.85 63.84 12.58 59.23C9.14 59.23 5.68 59.2 2.23 59.24C1.25 59.25 0.5 59 -0.01 58.15C0 41.15 0 24.14 0 7.13ZM3.19 9.32C3.19 22.88 3.19 36.33 3.19 49.9C5.8 49.9 8.35 49.9 10.92 49.9C10.92 50.97 10.92 51.93 10.92 53C8.31 53 5.75 53 3.2 53C3.2 54.09 3.2 55.07 3.2 56.11C4.83 56.11 6.39 56.11 7.94 56.11C9.5 56.11 11.05 56.11 12.57 56.11C14.42 50.9 17.32 48.41 21.63 48.29C23.58 48.24 25.39 48.73 27.02 49.79C29.32 51.28 30.65 53.43 31.22 56.04C40.67 56.04 50.05 56.04 59.44 56.04C59.44 55.01 59.44 54.05 59.44 52.96C50.57 52.96 41.76 52.96 32.94 52.96C32.94 51.87 32.94 50.91 32.94 49.85C41.8 49.85 50.59 49.85 59.45 49.85C59.45 38.38 59.45 27 59.45 15.51C41.72 15.51 24.03 15.51 6.32 15.51C6.32 14.42 6.32 13.44 6.32 12.38C24.06 12.38 41.74 12.38 59.45 12.38C59.45 11.32 59.45 10.34 59.45 9.32C40.67 9.32 21.95 9.32 3.19 9.32ZM86.18 49.78C87.8 49.78 89.32 49.78 90.86 49.78C90.86 47.01 90.86 44.38 90.86 41.77C90.86 40.52 90.82 40.48 89.57 40.48C82.35 40.48 75.13 40.48 67.91 40.47C66.27 40.47 65.79 39.99 65.78 38.35C65.78 34.05 65.78 29.75 65.78 25.45C65.79 23.82 66.28 23.33 67.92 23.33C71.38 23.32 74.84 23.33 78.29 23.33C78.62 23.33 78.94 23.33 79.47 23.33C78.87 22.39 78.35 21.65 77.92 20.87C77.62 20.35 77.27 20.18 76.67 20.18C72.32 20.21 67.98 20.19 63.63 20.2C63.36 20.2 63.1 20.23 62.8 20.24C62.8 32.21 62.8 44.13 62.8 56.06C63.88 56.06 64.87 56.06 65.85 56.06C67.76 50.84 70.6 48.31 74.91 48.32C80.13 48.34 83.19 51.2 84.54 56.06C86.64 56.06 88.7 56.06 90.8 56.06C90.8 55.02 90.8 54.03 90.8 52.94C89.22 52.94 87.71 52.94 86.18 52.94C86.18 51.89 86.18 50.95 86.18 49.78ZM88.42 37.32C88.34 37.13 88.33 37.04 88.28 36.96C86.12 33.61 83.97 30.25 81.77 26.92C81.59 26.65 81.07 26.48 80.71 26.47C77.11 26.44 73.5 26.45 69.89 26.46C69.6 26.46 69.3 26.48 69 26.49C69 30.15 69 33.72 69 37.32C75.5 37.32 81.91 37.32 88.42 37.32ZM75.17 63.88C78.61 63.89 81.44 61.11 81.46 57.69C81.49 54.3 78.67 51.44 75.25 51.4C71.79 51.37 68.92 54.2 68.93 57.66C68.94 61.1 71.72 63.87 75.17 63.88ZM21.88 63.88C25.33 63.9 28.13 61.17 28.19 57.72C28.26 54.3 25.38 51.4 21.93 51.4C18.51 51.4 15.68 54.21 15.65 57.63C15.63 61.04 18.44 63.85 21.88 63.88Z" fill="#000000" fill-opacity="1.000000" fill-rule="nonzero"/>
		<path d="M0 0C0.99 0 1.99 0 3.06 0C3.06 0.95 3.06 1.93 3.06 3.11C2.04 3.11 1.02 3.11 0 3.11C0 2.07 0 1.03 0 0Z" fill="#000000" fill-opacity="1.000000" fill-rule="nonzero"/>
		<path d="M28.2 0C28.2 0.88 28.24 1.71 28.18 2.52C28.17 2.7 27.86 2.92 27.64 3.02C27.46 3.11 27.22 3.04 27 3.04C20.49 3.04 13.97 3.04 7.46 3.04C7.1 3.04 6.74 3.04 6.32 3.04C6.32 2 6.32 1.05 6.32 0C13.56 0 20.81 0 28.2 0Z" fill="#000000" fill-opacity="1.000000" fill-rule="nonzero"/>
		<path d="M76.71 56.18C76.71 57.2 76.71 58.16 76.71 59.17C75.69 59.17 74.7 59.17 73.67 59.17C73.67 58.17 73.67 57.22 73.67 56.18C74.65 56.18 75.63 56.18 76.71 56.18Z" fill="#000000" fill-opacity="1.000000" fill-rule="nonzero"/>
		<path d="M23.45 56.18C23.45 57.2 23.45 58.16 23.45 59.18C22.45 59.18 21.49 59.18 20.44 59.18C20.44 58.21 20.44 57.23 20.44 56.18C21.41 56.18 22.39 56.18 23.45 56.18Z" fill="#000000" fill-opacity="1.000000" fill-rule="nonzero"/>
	</g>
</svg>
